<?xml version="1.0" encoding="utf-8"?>
<!-- Generator: Adobe Illustrator 21.0.0, SVG Export Plug-In . SVG Version: 6.00 Build 0)  -->
<svg version="1.1" id="Layer_1" xmlns="http://www.w3.org/2000/svg" xmlns:xlink="http://www.w3.org/1999/xlink" x="0px" y="0px"
	 viewBox="0 0 1366 768" style="enable-background:new 0 0 1366 768;" xml:space="preserve">
<style type="text/css">
	.st0{fill:#1A1A1A;}
	.st1{fill:#FFFFFF;}
	.st2{font-family:'MyriadPro-Regular';}
	.st3{font-size:40px;}
	.st4{font-size:85px;}
	.st5{fill:#5ED3B6;}
	.st6{font-size:30px;}
	.st7{fill:none;stroke:#FFFFFF;stroke-width:2;stroke-miterlimit:10;}
	.st8{fill:url(#SVGID_1_);stroke:url(#SVGID_2_);stroke-miterlimit:10;}
	.st9{fill:url(#SVGID_3_);}
	.st10{font-size:25px;}
</style>
<rect x="-0.5" y="-0.5" class="st0" width="1366" height="768"/>
<path class="st1" d="M115.3,83.7h2.9c0,0,1,13.4,12.2,18.5l0,0c0.4-0.1,8.1-2.5,13.5-18.5h2.5c1.5,0,2.8,1.1,3,2.5l4.5,25.4
	c0.3,1.8-1.1,3.5-2.9,3.5h-41c-1.9,0-3.3-1.8-2.9-3.7l5.9-26C113.2,84.4,114.2,83.7,115.3,83.7z"/>
<path class="st1" d="M130.4,75.2c-5,0-9.2,4.2-9.2,9.3c0,2,0.6,3.9,1.7,5.4c1.7,2.4,4.6,9.1,7.5,9.1c2.7,0,5.3-6,6.7-8.1
	c1.6-2.3,2.5-3.9,2.5-6.4C139.6,79.4,135.5,75.2,130.4,75.2z M123.6,85.6c0-3.8,3.1-6.8,6.8-6.8c3.8,0,6.8,3.1,6.8,6.8H123.6z"/>
<text transform="matrix(1 0 0 1 162.6748 112.0488)" class="st1 st2 st3">Shofalo</text>
<text transform="matrix(1 0 0 1 215.5078 336.334)" class="st1 st2 st4">Shoping Like </text>
<rect x="219.7" y="469.4" class="st5" width="156.2" height="58"/>
<text transform="matrix(1 0 0 1 235.1755 506.3176)" class="st1 st2 st6">Shop Now</text>
<text transform="matrix(1 0 0 1 401.8984 105.8311)" class="st1 st2 st6">About</text>
<text transform="matrix(1 0 0 1 516.8984 105.8311)" class="st1 st2 st6">Men</text>
<text transform="matrix(1 0 0 1 602.8984 105.8311)" class="st1 st2 st6">Women</text>
<text transform="matrix(1 0 0 1 722.8984 105.8311)" class="st1 st2 st6">Get in Touch</text>
<text transform="matrix(1 0 0 1 900.8984 105.8311)" class="st1 st2 st6">Vendor</text>
<g>
	<path class="st1" d="M1167.1,109l-7.7-7c-0.6-0.5-0.6-1.5-0.1-2.1l0,0c0.5-0.6,1.5-0.6,2.1-0.1l7.7,7c0.6,0.5,0.6,1.5,0.1,2.1l0,0
		C1168.6,109.5,1167.7,109.6,1167.1,109z"/>
	<path class="st1" d="M1160.6,87.2c-4.2-3.8-10.7-3.5-14.5,0.6c-3.8,4.2-3.5,10.7,0.6,14.5c4.2,3.8,10.7,3.5,14.5-0.6
		C1165.1,97.5,1164.8,91.1,1160.6,87.2z M1148.9,100c-2.9-2.6-3.1-7.1-0.4-9.9c2.6-2.9,7.1-3.1,9.9-0.4s3.1,7.1,0.4,9.9
		C1156.2,102.4,1151.8,102.6,1148.9,100z"/>
</g>
<g>
	<polygon class="st7" points="1198.9,90.7 1221.2,90.7 1224,110.2 1197,110.2 	"/>
	<path class="st7" d="M1202.6,92.8c0,0,0.9-9.8,7.4-9.8c0,0,6.1-0.5,7.9,9.8H1202.6z"/>
</g>
<linearGradient id="SVGID_1_" gradientUnits="userSpaceOnUse" x1="683" y1="85" x2="1366" y2="85" gradientTransform="matrix(1 0 0 -1 0 768)">
	<stop  offset="0" style="stop-color:#2AF598"/>
	<stop  offset="0.3" style="stop-color:#1CD8BA"/>
	<stop  offset="0.77" style="stop-color:#08AEEA"/>
	<stop  offset="1" style="stop-color:#009EFD"/>
</linearGradient>
<linearGradient id="SVGID_2_" gradientUnits="userSpaceOnUse" x1="682.5" y1="85" x2="1366.5" y2="85" gradientTransform="matrix(1 0 0 -1 0 768)">
	<stop  offset="0" style="stop-color:#4FACFE"/>
	<stop  offset="0.21" style="stop-color:#3CBCFE;stop-opacity:0.77"/>
	<stop  offset="0.6" style="stop-color:#1CD9FE;stop-opacity:0.36"/>
	<stop  offset="0.87" style="stop-color:#08EBFE;stop-opacity:0.1"/>
	<stop  offset="1" style="stop-color:#00F2FE;stop-opacity:0"/>
</linearGradient>
<rect x="683" y="599" class="st8" width="683" height="168"/>
<linearGradient id="SVGID_3_" gradientUnits="userSpaceOnUse" x1="0" y1="85" x2="683" y2="85" gradientTransform="matrix(1 0 0 -1 0 768)">
	<stop  offset="0" style="stop-color:#00AFFF"/>
	<stop  offset="1" style="stop-color:#FC00FF"/>
</linearGradient>
<rect y="599" class="st9" width="683" height="168"/>
<line class="st7" x1="1108" y1="81" x2="1108" y2="112"/>
<rect class="st5" width="1366" height="44"/>
<text transform="matrix(1 0 0 1 1051.8984 30.8311)" class="st1 st2 st10">My Account</text>
<text transform="matrix(1 0 0 1 1210.8984 30.8311)" class="st1 st2 st10">Check Out</text>
<line class="st7" x1="1192" y1="12" x2="1192" y2="34"/>
<text transform="matrix(1 0 0 1 215.5078 431.1885)" class="st1 st2 st4">Never before</text>
</svg>
