<?xml version="1.0" encoding="utf-8"?>
<!-- Generator: Adobe Illustrator 21.0.0, SVG Export Plug-In . SVG Version: 6.00 Build 0)  -->
<svg version="1.1" id="Layer_1" xmlns="http://www.w3.org/2000/svg" xmlns:xlink="http://www.w3.org/1999/xlink" x="0px" y="0px"
	 viewBox="0 0 1242 2208" style="enable-background:new 0 0 1242 2208;" xml:space="preserve">
<style type="text/css">
	.st0{fill:#333333;}
	.st1{fill:#FFFFFF;}
	.st2{fill:none;}
	.st3{font-family:'MyriadPro-Regular';}
	.st4{font-size:112px;}
	.st5{fill:none;stroke:#FFFFFF;stroke-width:5;stroke-miterlimit:10;}
	.st6{font-size:128px;}
	.st7{fill:#5ED3B6;}
	.st8{font-size:80px;}
	.st9{fill:#23ABDD;}
</style>
<rect class="st0" width="1241" height="2208"/>
<path class="st1" d="M127.4,170h8.3c0,0,2.8,37.8,34.3,52c0,0,0,0,0,0c1-0.2,22.7-6.9,37.9-52h6.9c4.2,0,7.8,3,8.5,7.1l12.6,71.6
	c0.9,5.1-3.1,9.9-8.3,9.9H112.4c-5.4,0-9.4-5-8.2-10.3l16.6-73.1C121.5,172.2,124.2,170,127.4,170z"/>
<path class="st1" d="M170,146.2c-14.2,0-25.8,11.7-25.8,26.1c0,5.6,1.8,10.9,4.8,15.1c4.7,6.7,13,25.5,21,25.5
	c7.6,0,14.9-17,18.8-22.7c4.4-6.4,7-11,7-17.9C195.8,157.9,184.2,146.2,170,146.2z M150.8,175.4c0-10.6,8.6-19.2,19.2-19.2
	c10.6,0,19.2,8.6,19.2,19.2H150.8z"/>
<rect x="260.7" y="170.4" class="st2" width="404.9" height="101.9"/>
<text transform="matrix(1 0 0 1 260.6743 249.8784)" class="st1 st3 st4">Shofalo</text>
<rect x="905" y="203" class="st1" width="52" height="9"/>
<rect x="905" y="217" class="st1" width="52" height="9"/>
<rect x="905" y="189" class="st1" width="52" height="9"/>
<polygon class="st5" points="1044,193.5 1092,193.5 1098,235.5 1040,235.5 "/>
<path class="st5" d="M1052,198c0,0,2-21,16-21c0,0,13-1,17,21H1052z"/>
<rect x="261.7" y="906.4" class="st2" width="718.7" height="274.6"/>
<text transform="matrix(1 0 0 1 261.669 997.2383)"><tspan x="0" y="0" class="st1 st3 st6">Shoping Like</tspan><tspan x="0" y="153.6" class="st1 st3 st6">Never before</tspan></text>
<rect x="345.5" y="1255" class="st7" width="456.5" height="165"/>
<rect x="404.3" y="1303.4" class="st2" width="433.3" height="102.6"/>
<text transform="matrix(1 0 0 1 404.3371 1360.1587)" class="st1 st3 st8">Shop Now</text>
<rect x="-1" y="2043" class="st9" width="1242" height="165"/>
</svg>
