<?xml version="1.0" encoding="utf-8"?>
<!-- Generator: Adobe Illustrator 21.0.0, SVG Export Plug-In . SVG Version: 6.00 Build 0)  -->
<svg version="1.1" id="Layer_1" xmlns="http://www.w3.org/2000/svg" xmlns:xlink="http://www.w3.org/1999/xlink" x="0px" y="0px"
	 viewBox="0 0 300 300" style="enable-background:new 0 0 300 300;" xml:space="preserve">
<style type="text/css">
	.st0{fill:#333333;}
	.st1{fill:#D78F5C;}
	.st2{fill:#A16B45;}
	.st3{fill:#FF0066;}
	.st4{fill:#0C0C0C;}
	.st5{fill:#564E50;}
	.st6{fill:#DFA57C;}
	.st7{fill:#212121;}
</style>
<path class="st0" d="M248.3,278.3c-0.2-1-0.1-2.8-0.5-4.3c-0.4-1.7-1.4-2.7-2.3-3.7c-1.4-1.5-1.9-1.3-2.7-2.6
	c-1-1.5-0.6-2.3-1.6-3.6c-0.8-1-1.4-1-2.6-1.9c-1.3-1-2.4-2.4-3.2-3.9c-1.3-2.3-0.9-3.6-1.8-7.7c-0.6-2.7-0.9-2.9-1.7-5.9
	c-0.9-3.4-1.5-6.9-1.8-10.4c-0.5-4.1-1.8-8.3-4.4-16.6c-2.8-9.1-4.3-13.7-6.5-17.2c-1.9-3-4.9-7.4-10.3-10.3
	c-2.9-1.5-6.1-2.1-12.4-3.1c-8.8-1.4-13.2-2.1-16.9-1c-1.3,0.5-2.8,0.6-4.2,0.3c-1.9-0.5-3.6-2.2-4.5-4.2c-0.7-1.6-0.4-2.6-0.9-2.7
	c-1.2-0.4-2.6,5.2-6.2,8.2c-4.1,3.4-9.7,2.5-19.9,0.9c-8.9-1.4-14.2-2.2-18.7-6.5c-2.2-2.1-3.5-4.4-4.9-4c-2.4,0.2-0.4,7.8-5.1,12.3
	c-0.6,0.6-1.5,1.3-3.3,2.7c-2.8,2.2-3.6,2.6-5,4c-1.4,1.3-1.7,2.1-3,3.8c-1.1,1.4-2,2.5-5.9,6.6c-6.4,6.7-9.5,10-13.4,13.8
	c-4.5,4.3-8,7.7-13.1,12c-8.2,6.9-9.7,7.1-12.4,11c-2.5,3.6-3.5,7-5.5,13.8c-2.1,6.9-0.7,6.1-2.7,13.4c-0.7,2.3-1.6,5-1.7,6.8h0v6.7
	l199.4,15v-21.7H248.3z"/>
<path id="_Path_2" class="st1" d="M115.9,163.9c-0.1,0,0.3,1.9,0.5,3c0.5,2.1,0.7,3.1,1,4.3c0.9,3.5,0.7,7.4,0.6,9.1
	c-0.1,4.2-0.9,8.3-2.5,12.2c-0.5,1-0.8,2.1-0.9,3.2c-0.1,0.8-0.1,1.6,0,2.5c0.3,2.5,3.1,4.4,6.6,6.8c5,3.4,7.5,5.1,8.3,5.5
	c5.3,2.9,8.1,4.4,12.1,4.6c4.3,0.2,7.9-1.2,9.8-1.9c8.8-3.4,9.2-3.6,9.2-3.6c1-0.6,2.1-1.2,3-0.8c0.8,0.4,1.2,1.4,1.9,6.1
	c0.6,3.8,0.6,4.2,0.9,5.5c0.5,2.1,1.2,3.3,2.6,5.9c3.9,7.6,4.4,9.7,5,9.5c1.1-0.3,0.6-7.7-0.1-12.8c-0.6-4-2-11-2.6-14.8
	c-0.6-3.7,0-2.5-0.4-4.4c-0.1-0.7-0.3-1.4,0-2.1c0.4-0.8,1.2-1.1,1.9-1.5c1.4-0.7,2.5-1.8,3.4-3.1c1.5-2.9-1.5-7.4-1.8-7.9
	c-2.2-3.2-3.5-4.4-3.5-4.4c-0.7-0.6-1.2-1.3-1.5-2.2c-0.5-1.4-0.1-2.4-0.6-2.6c-0.6-0.4-1.8,0.8-3.5,2.1c0,0-0.1,0.1-4.6,3.1
	c-4.8,3.2-14.1,1.4-19.7-0.8c-3.8-1.5-3.2-2.1-8.5-4.3c-4.5-1.8-6.3-2.1-8.7-4.3c-1.6-1.4-2.9-3.1-3.9-4.9c-0.6-1.3-1.3-2.6-2.1-3.9
	c-0.2-0.2-0.4-0.6-0.7-1.2C116.2,164.8,115.9,163.9,115.9,163.9z"/>
<path id="_Path_3" class="st2" d="M115.6,164.8c-0.3,0.2,0.1,0.8,1.2,5.8c0.3,1.2,0.5,2.5,0.7,3.8v0.2c0.1,1.5,0.2,3.1,0.1,4.6
	c-0.2,3.4-0.3,5.2-0.5,6.3c-0.7,3.7-1.8,4.8-2.8,9.6c-0.3,1.3-0.3,2.7,0.2,4c0.3,0.7,0.7,1.7,1.6,2.3c1.7,1,3.1-0.7,7.9-1.3
	c1.3-0.1,1.7-0.1,3.8-0.3c1.5-0.2,2.1-0.3,3.6-0.5s2.7-0.3,4.1-0.4c3.9-0.3,5.8-0.5,8.3-0.7c6.6-0.5,11-0.8,14.9-3
	c7.3-4.1,10.7-13.1,9.5-14.2c-0.5-0.5-2.6,1.3-5.2,2.7c-9.5,5.1-23,2.1-31.5-3.2C121.6,174.4,116.6,164.1,115.6,164.8z"/>
<path id="_Path_4" class="st3" d="M154.5,212c1.4-0.5,2.5-0.9,3.2-1.2l2.8-1.2c1.8-0.8,2.2-1,2.7-0.8s1,0.7,1.5,1.8
	c0.6,1.6,1,3.4,1,5.2c0.1,2.9,0.9,5,2.2,8.3c0.4,1,1.3,2.9,3.3,6.8c0.6,1.2,1.1,2.4,1.8,3.6c1.8,3.5,2.7,4.5,2.3,5.5s-2,1.4-2.9,0.9
	c-0.5-0.3-0.8-0.8-0.9-1.3c-0.6-1.7-2-4.6-4.4-9c-0.6-1.6-1.3-3.2-2.1-4.7c-1.4-2.4-3-4.6-4.9-6.6c-1.5-1.7-2.6-2.5-4-4.6
	C155.4,213.7,155,212.9,154.5,212z"/>
<path id="_Path_5" class="st4" d="M160.1,219.8c-0.1,0.2,1.1,1.2,2.5,3.1c0.5,0.7,1,1.5,1.4,2.2c1.2,2.1,1.9,3.9,2.1,4.4
	c2,4.5,3.1,6.9,3.4,7.5c1.1,2.2,2,3.9,3.3,7c0.2,0.5,0.3,0.7,0.4,1.1c1,2.7,1.7,5.5,2.2,8.3c1.3,6.4,0.7,5.8,2,12.6
	c1.7,9.4,3.1,11.8,3.1,12.2v0.1c0.2,0.2,1.1-0.1,1.4-0.5c0.5-0.6-0.1-1.8-0.3-2.1c-0.2-0.5-1.1-4.2-2.7-11.5c-0.4-1.8,0-0.6-1.3-8.5
	c-0.8-5-1.4-6.1-1.5-9c-0.1-1.2,0.1-1.5,0-2.6c-0.1-1.9-0.5-4-1.1-5.8c-1.3-4.5,0-5.4-1.4-14.5c-0.4-3-1-5.9-1-5.9
	c-0.4-2.3-0.6-2.6-1-5c-0.4-1.9-0.7-3.8-0.8-5.7c0-1.1-0.2-2.1-0.2-3.2c0-0.3,0-0.8-0.1-0.8s-0.3,0.4-0.3,0.9c0,0.4,0.1,0.8,0.2,1.2
	c0.1,0.2,0.1,0.9,0.2,2.2c0,0.5,0,0.8,0.1,1.2c0.1,2,0.7,4.3,1.3,7c0.1,0.4,0.2,1.3,0.5,3.1c0.7,4.3,1.1,6.4,1.2,7.5
	c0.8,6.4,0,9.3-0.2,10.1c-0.1,0.4-1,3.8-1.8,3.7c-0.4,0-0.4-0.9-1-1.7c-0.9-1.5-1.6-3.2-2.3-4.8v-0.4c-0.3-0.7-3.2-7.7-5.1-10.3
	c-0.5-0.6-0.9-1-1.5-1.8c-0.1-0.2-0.3-0.5-0.5-0.6C160.9,220.1,160.2,219.7,160.1,219.8z"/>
<path id="_Path_6" class="st5" d="M170.9,238.7c-0.1-1.3,2.6-2.8,3.4-2.2c0.3,0.2,0.1,0.6,0.3,2.3c0.1,0.8,0.3,1.6,0.5,2.7
	c0.3,1.3,0.4,1.7,0.1,2.1c-0.3,0.3-0.8,0.4-1.2,0.3c-0.5-0.2-0.7-0.7-1-1.3c-0.2-0.5-0.5-1.1-0.8-1.5
	C171.6,239.4,171,239.4,170.9,238.7z"/>
<path id="_Path_7" class="st6" d="M112,155.6c-0.6,0.1-0.3,2.1-1.5,2.8s-3.3-0.3-3.8-0.6c-1-0.5-1.8-1.3-2.3-2.2
	c-0.4-0.6-0.2-0.6-1-2.2c-0.3-0.5-0.6-1.1-0.8-1.7c-0.2-0.4-0.3-0.9-0.4-1.4c-0.2-0.9-0.3-1.5-0.5-2.4c-0.4-1.8-0.5-2.1-0.6-2.8
	s-0.2-1-0.2-1.5c0-0.1,0-0.4-0.1-0.7c-0.1-0.4-0.1-0.7-0.1-0.8c-0.1-0.7-0.1-1.4-0.1-2.1c0-1.1-0.1-1.1-0.1-1.9c0-0.4,0-0.6,0-1.2
	c0-0.6,0-0.9,0-1.3c-0.1-1.1,0-2.3,0.3-3.4c0.2-0.7,0.5-1.4,0.9-2.1c0.2-0.5,0.5-0.9,0.9-1.2c0.6-0.3,1.4-0.4,2.1-0.1
	c1.3,0.4,1.9,1.5,2.5,2.5c0.3,0.4,0.5,0.9,0.5,1.4c0,0.6-0.1,0.9,0,1c0.3,0.2,1.5-1.4,1.7-1.3c0.1,0.1-0.5,0.6-0.5,1.3
	c0,0.8,1,1.2,1.7,1.8c2.2,2,1.1,6.6,1.4,6.6c0.2,0,0.5-1.1,0.5-2.5c0-1.9-0.8-3-1.5-4.8c-1.1-2.5-2.1-4.7-1.5-7.1
	c0.1-0.5,0.6-3.1,2.5-4.3c0.6-0.4,1.2-0.8,1.8-1.3c0.6-0.4,1-1,1.4-1.5c1-1.7,0-2.9,0.9-3.7s1.9,0.1,2.8-0.6s1-2.3,0.6-3.4
	s-1.1-1.1-1.7-2.5c-0.4-1-0.1-1.3-0.4-2.5c-0.5-2-1.8-2.2-2.3-4.3c-0.2-0.6-0.2-1.2-0.1-1.8c0.1-1.1,0.6-1.4,1.8-3.2
	c1.4-2.1,1.5-2.7,2.6-3.7c0.4-0.4,0.9-0.7,1.4-1c0.7-0.3,1.3-0.6,2.1-0.8c1.1-0.3,2.1-0.4,3.2-0.5c3.3-0.4,3.9-0.4,4.3,0
	c0.3,0.3,0.6,0.5,1,0.6c0.2,0.1,0.5,0.1,0.8,0.1c1.4,0.1,2.7,0.3,4,0.7c2,0.6,1.9,1.7,3.4,1.8c1,0.1,1.1-0.5,3-0.9
	c2.1-0.5,2.3,0.1,4.1-0.4c1.9-0.5,1.9-1.2,3.5-1.3c0.9-0.1,1.4,0.1,2.5-0.1c0.9-0.2,0.9-0.5,1.8-0.6c0.4-0.1,0.7-0.1,2.5,0
	c0.9,0,1.8,0.1,2.7,0.3c1.3,0.5,1.2,1.2,2.2,1.7c1.8,0.8,2.9-1.2,5.9-1c2,0.1,3.1,1.1,4,0.4c0.7-0.5,0.7-1.5,1-1.5s0.4,0.8,0.9,1.8
	c0.8,1.5,1.6,1.3,2.8,3c0.6,0.7,1,1.6,1,2.6c0,0.7-0.3,0.9-0.5,1.7c-0.3,1.2,0.2,1.6,0.6,4.1c0.4,2.2,0.1,2.2,0.5,3.4
	c0.3,0.9,0.7,1.3,0.6,2.1c0,0.9-0.4,1.2-0.8,2.1c-0.6,1.5-0.2,3,0.1,4.1c0.3,1.3,0.6,1.1,1.4,3.5c0.3,0.7,0.5,1.4,0.6,2.2
	c0.2,1,0.3,2,0.3,3c0,2.2-0.4,2.2-0.4,4c0,1,0,4.9,0.4,4.9s0.4-2.8,1.3-2.9c0.6-0.1,1.3,1.2,1.7,2.2s0.2,1.6,0.1,3.7
	c0,0,0,1.8,0.1,3.9c0.1,1.3,0.2,2.6,0.4,3.9c0,0.2,0.2,1.5,0.5,3.1c0.1,0.7,0.1,0.7,0.1,0.8c0.1,1.1-0.1,2.2-0.6,3.2
	c-0.2,0.4-1,2.3-1.9,2.2c-0.2,0-0.4-0.1-0.6,0.1c-0.2,0.2-0.1,0.6-0.1,0.7c0.2,1.1-0.3,2.3-0.3,3.4c-0.1,1.6-1.5,7.1-5.1,12.9
	c-2.1,3.2-4.5,6.1-7.4,8.6c-2,1.9-3.9,3.6-6.1,4.9c-7.7,4.4-17.1,1.4-24.9-1c-4.4-1.4-8.9-2.9-13.3-6.8c-2.4-2.1-4.4-4.6-5.9-7.5
	c-1.1-2-1.9-4.3-3.1-7.7C113.7,158.6,112.8,155.5,112,155.6z"/>
<path id="_Path_9" class="st7" d="M152.2,172.7c0.2-0.3,1,0.2,2.6,0.1c2.1-0.2,3-1.3,3.3-1c0.5,0.5-0.7,3.7-2.8,3.8
	C153.4,175.7,151.9,173.3,152.2,172.7z"/>
<path class="st7" d="M185.8,99c-0.3-2.3-0.7-2.6-1.3-6.3c-0.6-3.6-0.4-4.6-0.8-6.2c-2-7.2-7.6-12.9-9.3-12.1c-1,0.5-0.3,3.5-1,3.6
	c-0.7,0.1-1.2-1.5-3.4-5.7c-2.2-4.1-3.3-7.1-4.4-7c-0.9,0.1-0.8,2.1-2.1,2.6c-1.4,0.5-3.6-1.3-4.9-3.1c-2.4-3.4-1.2-6.4-3.1-7.5
	c-1.3-0.8-3.1-1-4.4,0.5c-2.8,3.3-6.2,4.7-9,5.3c0-0.2,0.1-0.5,0.1-0.8c0.2-1.3,0.9-4,0.1-4.4c-1-0.5-4.2,3-7.8,5.9
	c-0.2,0.2-0.4,0.4-0.7,0.5c-1.9,0.5-3.2,0.6-4.3,0.6c0.3-1.1,0.6-2.3,0.2-2.7c-0.9-1.1-5.7,1.6-10,5.5c-3.8,2.2-6.6,5.1-9.1,7.8
	c-2,2.1-4.1,5.2-8.3,11.5c-1.9,2.9-3.4,5.1-4.4,8.4c-0.6,1.9-1,3.9-1.2,5.9c0.2,0.6,0.4,1.5,0.7,2.6c0.8,3.5,1,5.1,1.6,8.2
	c1,5.2,1.3,4.3,1.6,7c0.4,3.5,1.1,7.3,1.1,10.8c0,0.2,0.1,0.5,0.2,0.6c0.3,0.3,0.8,0,1.3-0.1c1.6-0.3,2.6,2.8,2.9,3.9
	c0.1,0.3,0.1,0.5,0.3,0.7c0.6,0.6,1.7,0.1,2.4,0.8c0.3,0.3,0.5,0.7,0.7,1.1c1.1,2.1,1.9,4.3,2.5,6.6c-0.1-0.5,0.5-1.8,0.5-2.4
	c0.1-0.9,0.3-1.7,0.4-2.5c0.2-1.6,0.3-3.2,0.4-4.8c0-1.5,0.1-3.1,0.1-4.7c-0.1-1.5-0.3-3,0.3-4.4c0.5-1.3,1.7-2.2,2.9-3
	c1.4-0.9,3-1.7,3.8-3.2c3.9-6.9-6.7-13.2-2.2-20.1c1.5-2.2,4-3.5,6.6-4.1c3.1-0.7,6.3-0.5,9.3,0.4c2.3,0.7,4.2,2.2,6.7,2.7
	c2.9,0.6,5.9,0.4,8.7-0.6c3.2-1.1,3.2-2.3,5.7-2.8c3.2-0.6,3.8,1.3,8,1.8c2.1,0.2,4.2,0,6.2-0.3c1.6-0.3,3.8-1.1,5.3,0
	c0.7,0.5,1,1.4,1.1,2.3c0.1,0.9,0,1.7,0,2.6c0.1,2.1,0.9,4.2,1.4,6.3c0.3,1.3,0.5,2.6,0.4,3.9c-0.1,1.2-0.8,2.2-0.8,3.3
	c0,3.4,2.5,5.9,2.9,9.2c0.3,2.6-0.3,5.2-0.1,7.8c0,0.5,0.2,4.8,0.9,4.8c0.2,0,0.6-0.8,1.2-3.4c1.5-6.1,1.6-9.7,2.4-15.6
	c0.7-4.5,0.9-4.3,1.3-8C186,104.7,186.3,102.3,185.8,99z"/>
</svg>
